<svg width="561" height="464" viewBox="0 0 561 464" fill="none" xmlns="http://www.w3.org/2000/svg">
<rect width="561" height="464" fill="#3A3A3A"/>
<rect x="117.5" y="50.5" width="324" height="84" rx="18.5" fill="#330399" stroke="white" stroke-width="3"/>
<path d="M143.161 86V68.5455H149.058C150.422 68.5455 151.541 68.7784 152.416 69.2443C153.291 69.7045 153.939 70.3381 154.359 71.1449C154.78 71.9517 154.99 72.8693 154.99 73.8977C154.99 74.9261 154.78 75.8381 154.359 76.6335C153.939 77.429 153.294 78.054 152.425 78.5085C151.555 78.9574 150.445 79.1818 149.092 79.1818H144.32V77.2727H149.024C149.956 77.2727 150.706 77.1364 151.274 76.8636C151.848 76.5909 152.263 76.2045 152.518 75.7045C152.78 75.1989 152.911 74.5966 152.911 73.8977C152.911 73.1989 152.78 72.5881 152.518 72.0653C152.257 71.5426 151.839 71.1392 151.266 70.8551C150.692 70.5653 149.933 70.4205 148.99 70.4205H145.274V86H143.161ZM151.376 78.1591L155.672 86H153.217L148.99 78.1591H151.376ZM163.587 86.2727C162.326 86.2727 161.238 85.9943 160.323 85.4375C159.414 84.875 158.712 84.0909 158.218 83.0852C157.729 82.0739 157.485 80.8977 157.485 79.5568C157.485 78.2159 157.729 77.0341 158.218 76.0114C158.712 74.983 159.4 74.1818 160.281 73.608C161.167 73.0284 162.201 72.7386 163.383 72.7386C164.065 72.7386 164.738 72.8523 165.403 73.0795C166.067 73.3068 166.673 73.6761 167.218 74.1875C167.763 74.6932 168.198 75.3636 168.522 76.1989C168.846 77.0341 169.008 78.0625 169.008 79.2841V80.1364H158.917V78.3977H166.962C166.962 77.6591 166.815 77 166.519 76.4205C166.229 75.8409 165.815 75.3835 165.275 75.0483C164.741 74.7131 164.11 74.5455 163.383 74.5455C162.582 74.5455 161.888 74.7443 161.303 75.142C160.724 75.5341 160.278 76.0455 159.965 76.6761C159.653 77.3068 159.496 77.983 159.496 78.7045V79.8636C159.496 80.8523 159.667 81.6903 160.008 82.3778C160.354 83.0597 160.835 83.5795 161.448 83.9375C162.062 84.2898 162.775 84.4659 163.587 84.4659C164.116 84.4659 164.593 84.392 165.019 84.2443C165.451 84.0909 165.823 83.8636 166.136 83.5625C166.448 83.2557 166.69 82.875 166.86 82.4205L168.803 82.9659C168.599 83.625 168.255 84.2045 167.772 84.7045C167.289 85.1989 166.692 85.5852 165.982 85.8636C165.272 86.1364 164.474 86.2727 163.587 86.2727ZM172.067 86V72.9091H174.079V86H172.067ZM173.09 70.7273C172.698 70.7273 172.36 70.5938 172.076 70.3267C171.798 70.0597 171.658 69.7386 171.658 69.3636C171.658 68.9886 171.798 68.6676 172.076 68.4006C172.36 68.1335 172.698 68 173.09 68C173.482 68 173.817 68.1335 174.096 68.4006C174.38 68.6676 174.522 68.9886 174.522 69.3636C174.522 69.7386 174.38 70.0597 174.096 70.3267C173.817 70.5938 173.482 70.7273 173.09 70.7273ZM179.774 78.125V86H177.763V72.9091H179.706V74.9545H179.876C180.183 74.2898 180.649 73.7557 181.274 73.3523C181.899 72.9432 182.706 72.7386 183.695 72.7386C184.581 72.7386 185.357 72.9205 186.021 73.2841C186.686 73.642 187.203 74.1875 187.572 74.9205C187.942 75.6477 188.126 76.5682 188.126 77.6818V86H186.115V77.8182C186.115 76.7898 185.848 75.9886 185.314 75.4148C184.78 74.8352 184.047 74.5455 183.115 74.5455C182.473 74.5455 181.899 74.6847 181.393 74.9631C180.893 75.2415 180.499 75.6477 180.209 76.1818C179.919 76.7159 179.774 77.3636 179.774 78.125ZM197.631 72.9091V74.6136H190.575V72.9091H197.631ZM192.688 86V71.1023C192.688 70.3523 192.864 69.7273 193.217 69.2273C193.569 68.7273 194.026 68.3523 194.589 68.1023C195.151 67.8523 195.745 67.7273 196.37 67.7273C196.864 67.7273 197.268 67.767 197.58 67.8466C197.893 67.9261 198.126 68 198.279 68.0682L197.7 69.8068C197.597 69.7727 197.455 69.7301 197.273 69.679C197.097 69.6278 196.864 69.6023 196.575 69.6023C195.91 69.6023 195.43 69.7699 195.134 70.1051C194.844 70.4403 194.7 70.9318 194.7 71.5795V86H192.688ZM205.229 86.2727C204.048 86.2727 203.011 85.9915 202.119 85.429C201.232 84.8665 200.539 84.0795 200.039 83.0682C199.545 82.0568 199.298 80.875 199.298 79.5227C199.298 78.1591 199.545 76.9687 200.039 75.9517C200.539 74.9347 201.232 74.1449 202.119 73.5824C203.011 73.0199 204.048 72.7386 205.229 72.7386C206.411 72.7386 207.445 73.0199 208.332 73.5824C209.224 74.1449 209.917 74.9347 210.411 75.9517C210.911 76.9687 211.161 78.1591 211.161 79.5227C211.161 80.875 210.911 82.0568 210.411 83.0682C209.917 84.0795 209.224 84.8665 208.332 85.429C207.445 85.9915 206.411 86.2727 205.229 86.2727ZM205.229 84.4659C206.127 84.4659 206.866 84.2358 207.445 83.7756C208.025 83.3153 208.454 82.7102 208.732 81.9602C209.011 81.2102 209.15 80.3977 209.15 79.5227C209.15 78.6477 209.011 77.8324 208.732 77.0767C208.454 76.321 208.025 75.7102 207.445 75.2443C206.866 74.7784 206.127 74.5455 205.229 74.5455C204.332 74.5455 203.593 74.7784 203.013 75.2443C202.434 75.7102 202.005 76.321 201.727 77.0767C201.448 77.8324 201.309 78.6477 201.309 79.5227C201.309 80.3977 201.448 81.2102 201.727 81.9602C202.005 82.7102 202.434 83.3153 203.013 83.7756C203.593 84.2358 204.332 84.4659 205.229 84.4659ZM214.232 86V72.9091H216.175V74.8864H216.311C216.55 74.2386 216.982 73.7131 217.607 73.3097C218.232 72.9062 218.936 72.7045 219.72 72.7045C219.868 72.7045 220.053 72.7074 220.274 72.7131C220.496 72.7187 220.663 72.7273 220.777 72.7386V74.7841C220.709 74.767 220.553 74.7415 220.308 74.7074C220.07 74.6676 219.817 74.6477 219.55 74.6477C218.913 74.6477 218.345 74.7812 217.845 75.0483C217.351 75.3097 216.959 75.6733 216.669 76.1392C216.385 76.5994 216.243 77.125 216.243 77.7159V86H214.232ZM228.081 86.2727C226.854 86.2727 225.797 85.983 224.911 85.4034C224.024 84.8239 223.342 84.0256 222.865 83.0085C222.388 81.9915 222.149 80.8295 222.149 79.5227C222.149 78.1932 222.393 77.0199 222.882 76.0028C223.376 74.9801 224.064 74.1818 224.945 73.608C225.831 73.0284 226.865 72.7386 228.047 72.7386C228.967 72.7386 229.797 72.9091 230.536 73.25C231.274 73.5909 231.879 74.0682 232.351 74.6818C232.822 75.2955 233.115 76.0114 233.229 76.8295H231.217C231.064 76.233 230.723 75.7045 230.195 75.2443C229.672 74.7784 228.967 74.5455 228.081 74.5455C227.297 74.5455 226.609 74.75 226.018 75.1591C225.433 75.5625 224.976 76.1335 224.646 76.8722C224.322 77.6051 224.161 78.4659 224.161 79.4545C224.161 80.4659 224.32 81.3466 224.638 82.0966C224.962 82.8466 225.416 83.429 226.001 83.8438C226.592 84.2585 227.286 84.4659 228.081 84.4659C228.604 84.4659 229.078 84.375 229.504 84.1932C229.93 84.0114 230.291 83.75 230.587 83.4091C230.882 83.0682 231.092 82.6591 231.217 82.1818H233.229C233.115 82.9545 232.834 83.6506 232.385 84.2699C231.942 84.8835 231.354 85.3722 230.621 85.7358C229.893 86.0938 229.047 86.2727 228.081 86.2727ZM241.658 86.2727C240.396 86.2727 239.308 85.9943 238.393 85.4375C237.484 84.875 236.783 84.0909 236.288 83.0852C235.8 82.0739 235.555 80.8977 235.555 79.5568C235.555 78.2159 235.8 77.0341 236.288 76.0114C236.783 74.983 237.47 74.1818 238.351 73.608C239.237 73.0284 240.271 72.7386 241.453 72.7386C242.135 72.7386 242.808 72.8523 243.473 73.0795C244.138 73.3068 244.743 73.6761 245.288 74.1875C245.834 74.6932 246.268 75.3636 246.592 76.1989C246.916 77.0341 247.078 78.0625 247.078 79.2841V80.1364H236.987V78.3977H245.033C245.033 77.6591 244.885 77 244.589 76.4205C244.3 75.8409 243.885 75.3835 243.345 75.0483C242.811 74.7131 242.18 74.5455 241.453 74.5455C240.652 74.5455 239.959 74.7443 239.374 75.142C238.794 75.5341 238.348 76.0455 238.036 76.6761C237.723 77.3068 237.567 77.983 237.567 78.7045V79.8636C237.567 80.8523 237.737 81.6903 238.078 82.3778C238.425 83.0597 238.905 83.5795 239.518 83.9375C240.132 84.2898 240.845 84.4659 241.658 84.4659C242.186 84.4659 242.663 84.392 243.089 84.2443C243.521 84.0909 243.893 83.8636 244.206 83.5625C244.518 83.2557 244.76 82.875 244.93 82.4205L246.874 82.9659C246.669 83.625 246.325 84.2045 245.842 84.7045C245.359 85.1989 244.763 85.5852 244.053 85.8636C243.342 86.1364 242.544 86.2727 241.658 86.2727ZM250.138 86V72.9091H252.081V74.9545H252.251C252.524 74.2557 252.964 73.7131 253.572 73.3267C254.18 72.9347 254.911 72.7386 255.763 72.7386C256.626 72.7386 257.345 72.9347 257.919 73.3267C258.499 73.7131 258.95 74.2557 259.274 74.9545H259.411C259.746 74.2784 260.249 73.7415 260.919 73.3438C261.589 72.9403 262.393 72.7386 263.331 72.7386C264.501 72.7386 265.459 73.1051 266.203 73.8381C266.947 74.5653 267.32 75.6989 267.32 77.2386V86H265.308V77.2386C265.308 76.2727 265.044 75.5824 264.516 75.1676C263.987 74.7528 263.365 74.5455 262.649 74.5455C261.729 74.5455 261.016 74.8239 260.51 75.3807C260.004 75.9318 259.751 76.6307 259.751 77.4773V86H257.706V77.0341C257.706 76.2898 257.464 75.6903 256.982 75.2358C256.499 74.7756 255.876 74.5455 255.115 74.5455C254.592 74.5455 254.104 74.6847 253.649 74.9631C253.2 75.2415 252.837 75.6278 252.558 76.1222C252.286 76.6108 252.149 77.1761 252.149 77.8182V86H250.138ZM276.486 86.2727C275.224 86.2727 274.136 85.9943 273.222 85.4375C272.312 84.875 271.611 84.0909 271.116 83.0852C270.628 82.0739 270.384 80.8977 270.384 79.5568C270.384 78.2159 270.628 77.0341 271.116 76.0114C271.611 74.983 272.298 74.1818 273.179 73.608C274.065 73.0284 275.099 72.7386 276.281 72.7386C276.963 72.7386 277.636 72.8523 278.301 73.0795C278.966 73.3068 279.571 73.6761 280.116 74.1875C280.662 74.6932 281.097 75.3636 281.42 76.1989C281.744 77.0341 281.906 78.0625 281.906 79.2841V80.1364H271.815V78.3977H279.861C279.861 77.6591 279.713 77 279.418 76.4205C279.128 75.8409 278.713 75.3835 278.173 75.0483C277.639 74.7131 277.009 74.5455 276.281 74.5455C275.48 74.5455 274.787 74.7443 274.202 75.142C273.622 75.5341 273.176 76.0455 272.864 76.6761C272.551 77.3068 272.395 77.983 272.395 78.7045V79.8636C272.395 80.8523 272.565 81.6903 272.906 82.3778C273.253 83.0597 273.733 83.5795 274.347 83.9375C274.96 84.2898 275.673 84.4659 276.486 84.4659C277.014 84.4659 277.491 84.392 277.918 84.2443C278.349 84.0909 278.722 83.8636 279.034 83.5625C279.347 83.2557 279.588 82.875 279.759 82.4205L281.702 82.9659C281.497 83.625 281.153 84.2045 280.67 84.7045C280.188 85.1989 279.591 85.5852 278.881 85.8636C278.17 86.1364 277.372 86.2727 276.486 86.2727ZM286.977 78.125V86H284.966V72.9091H286.909V74.9545H287.08C287.386 74.2898 287.852 73.7557 288.477 73.3523C289.102 72.9432 289.909 72.7386 290.898 72.7386C291.784 72.7386 292.56 72.9205 293.224 73.2841C293.889 73.642 294.406 74.1875 294.776 74.9205C295.145 75.6477 295.33 76.5682 295.33 77.6818V86H293.318V77.8182C293.318 76.7898 293.051 75.9886 292.517 75.4148C291.983 74.8352 291.25 74.5455 290.318 74.5455C289.676 74.5455 289.102 74.6847 288.597 74.9631C288.097 75.2415 287.702 75.6477 287.412 76.1818C287.122 76.7159 286.977 77.3636 286.977 78.125ZM304.698 72.9091V74.6136H297.914V72.9091H304.698ZM299.891 69.7727H301.903V82.25C301.903 82.8182 301.985 83.2443 302.15 83.5284C302.32 83.8068 302.536 83.9943 302.798 84.0909C303.065 84.1818 303.346 84.2273 303.641 84.2273C303.863 84.2273 304.045 84.2159 304.187 84.1932C304.329 84.1648 304.442 84.142 304.528 84.125L304.937 85.9318C304.8 85.983 304.61 86.0341 304.366 86.0852C304.121 86.142 303.812 86.1705 303.437 86.1705C302.869 86.1705 302.312 86.0483 301.766 85.804C301.227 85.5597 300.778 85.1875 300.42 84.6875C300.067 84.1875 299.891 83.5568 299.891 82.7955V69.7727ZM314.746 86V68.5455H316.86V84.125H324.974V86H314.746ZM333.462 86.2727C332.201 86.2727 331.113 85.9943 330.198 85.4375C329.289 84.875 328.587 84.0909 328.093 83.0852C327.604 82.0739 327.36 80.8977 327.36 79.5568C327.36 78.2159 327.604 77.0341 328.093 76.0114C328.587 74.983 329.275 74.1818 330.156 73.608C331.042 73.0284 332.076 72.7386 333.258 72.7386C333.94 72.7386 334.613 72.8523 335.278 73.0795C335.942 73.3068 336.548 73.6761 337.093 74.1875C337.638 74.6932 338.073 75.3636 338.397 76.1989C338.721 77.0341 338.883 78.0625 338.883 79.2841V80.1364H328.792V78.3977H336.837C336.837 77.6591 336.69 77 336.394 76.4205C336.104 75.8409 335.69 75.3835 335.15 75.0483C334.616 74.7131 333.985 74.5455 333.258 74.5455C332.457 74.5455 331.763 74.7443 331.178 75.142C330.599 75.5341 330.153 76.0455 329.84 76.6761C329.528 77.3068 329.371 77.983 329.371 78.7045V79.8636C329.371 80.8523 329.542 81.6903 329.883 82.3778C330.229 83.0597 330.71 83.5795 331.323 83.9375C331.937 84.2898 332.65 84.4659 333.462 84.4659C333.991 84.4659 334.468 84.392 334.894 84.2443C335.326 84.0909 335.698 83.8636 336.011 83.5625C336.323 83.2557 336.565 82.875 336.735 82.4205L338.678 82.9659C338.474 83.625 338.13 84.2045 337.647 84.7045C337.164 85.1989 336.567 85.5852 335.857 85.8636C335.147 86.1364 334.349 86.2727 333.462 86.2727ZM345.795 86.3068C344.965 86.3068 344.212 86.1506 343.536 85.8381C342.86 85.5199 342.323 85.0625 341.925 84.4659C341.528 83.8636 341.329 83.1364 341.329 82.2841C341.329 81.5341 341.477 80.9261 341.772 80.4602C342.067 79.9886 342.462 79.6193 342.957 79.3523C343.451 79.0852 343.996 78.8864 344.593 78.7557C345.195 78.6193 345.8 78.5114 346.408 78.4318C347.204 78.3295 347.849 78.2528 348.343 78.2017C348.843 78.1449 349.207 78.0511 349.434 77.9205C349.667 77.7898 349.783 77.5625 349.783 77.2386V77.1705C349.783 76.3295 349.553 75.6761 349.093 75.2102C348.638 74.7443 347.948 74.5114 347.022 74.5114C346.062 74.5114 345.309 74.7216 344.763 75.142C344.218 75.5625 343.835 76.0114 343.613 76.4886L341.704 75.8068C342.045 75.0114 342.499 74.392 343.067 73.9489C343.641 73.5 344.266 73.1875 344.942 73.0114C345.624 72.8295 346.295 72.7386 346.954 72.7386C347.374 72.7386 347.857 72.7898 348.403 72.892C348.954 72.9886 349.485 73.1903 349.996 73.4972C350.513 73.804 350.942 74.267 351.283 74.8864C351.624 75.5057 351.795 76.3352 351.795 77.375V86H349.783V84.2273H349.681C349.545 84.5114 349.317 84.8153 348.999 85.1392C348.681 85.4631 348.258 85.7386 347.729 85.9659C347.201 86.1932 346.556 86.3068 345.795 86.3068ZM346.102 84.5C346.897 84.5 347.567 84.3438 348.113 84.0312C348.664 83.7188 349.079 83.3153 349.357 82.821C349.641 82.3267 349.783 81.8068 349.783 81.2614V79.4205C349.698 79.5227 349.511 79.6165 349.221 79.7017C348.937 79.7812 348.607 79.8523 348.232 79.9148C347.863 79.9716 347.502 80.0227 347.15 80.0682C346.803 80.108 346.522 80.142 346.306 80.1705C345.783 80.2386 345.295 80.3494 344.84 80.5028C344.391 80.6506 344.028 80.875 343.749 81.1761C343.477 81.4716 343.34 81.875 343.34 82.3864C343.34 83.0852 343.599 83.6136 344.116 83.9716C344.638 84.3239 345.3 84.5 346.102 84.5ZM355.466 86V72.9091H357.409V74.8864H357.545C357.784 74.2386 358.216 73.7131 358.841 73.3097C359.466 72.9062 360.17 72.7045 360.955 72.7045C361.102 72.7045 361.287 72.7074 361.509 72.7131C361.73 72.7187 361.898 72.7273 362.011 72.7386V74.7841C361.943 74.767 361.787 74.7415 361.543 74.7074C361.304 74.6676 361.051 74.6477 360.784 74.6477C360.148 74.6477 359.58 74.7812 359.08 75.0483C358.585 75.3097 358.193 75.6733 357.903 76.1392C357.619 76.5994 357.477 77.125 357.477 77.7159V86H355.466ZM366.407 78.125V86H364.396V72.9091H366.339V74.9545H366.509C366.816 74.2898 367.282 73.7557 367.907 73.3523C368.532 72.9432 369.339 72.7386 370.327 72.7386C371.214 72.7386 371.989 72.9205 372.654 73.2841C373.319 73.642 373.836 74.1875 374.205 74.9205C374.575 75.6477 374.759 76.5682 374.759 77.6818V86H372.748V77.8182C372.748 76.7898 372.481 75.9886 371.947 75.4148C371.413 74.8352 370.68 74.5455 369.748 74.5455C369.106 74.5455 368.532 74.6847 368.026 74.9631C367.526 75.2415 367.131 75.6477 366.842 76.1818C366.552 76.7159 366.407 77.3636 366.407 78.125ZM378.435 86V72.9091H380.446V86H378.435ZM379.457 70.7273C379.065 70.7273 378.727 70.5938 378.443 70.3267C378.165 70.0597 378.026 69.7386 378.026 69.3636C378.026 68.9886 378.165 68.6676 378.443 68.4006C378.727 68.1335 379.065 68 379.457 68C379.849 68 380.185 68.1335 380.463 68.4006C380.747 68.6676 380.889 68.9886 380.889 69.3636C380.889 69.7386 380.747 70.0597 380.463 70.3267C380.185 70.5938 379.849 70.7273 379.457 70.7273ZM386.141 78.125V86H384.13V72.9091H386.073V74.9545H386.244C386.55 74.2898 387.016 73.7557 387.641 73.3523C388.266 72.9432 389.073 72.7386 390.062 72.7386C390.948 72.7386 391.724 72.9205 392.388 73.2841C393.053 73.642 393.57 74.1875 393.94 74.9205C394.309 75.6477 394.494 76.5682 394.494 77.6818V86H392.482V77.8182C392.482 76.7898 392.215 75.9886 391.681 75.4148C391.147 74.8352 390.414 74.5455 389.482 74.5455C388.84 74.5455 388.266 74.6847 387.761 74.9631C387.261 75.2415 386.866 75.6477 386.576 76.1818C386.286 76.7159 386.141 77.3636 386.141 78.125ZM403.453 91.1818C402.482 91.1818 401.646 91.0568 400.947 90.8068C400.249 90.5625 399.666 90.2386 399.2 89.8352C398.74 89.4375 398.374 89.0114 398.101 88.5568L399.703 87.4318C399.885 87.6705 400.115 87.9432 400.393 88.25C400.672 88.5625 401.053 88.8324 401.536 89.0597C402.024 89.2926 402.663 89.4091 403.453 89.4091C404.51 89.4091 405.382 89.1534 406.07 88.642C406.757 88.1307 407.101 87.3295 407.101 86.2386V83.5795H406.93C406.783 83.8182 406.572 84.1136 406.3 84.4659C406.033 84.8125 405.646 85.1222 405.141 85.3949C404.641 85.6619 403.964 85.7955 403.112 85.7955C402.055 85.7955 401.107 85.5455 400.266 85.0455C399.43 84.5455 398.768 83.8182 398.28 82.8636C397.797 81.9091 397.555 80.75 397.555 79.3864C397.555 78.0455 397.791 76.8778 398.263 75.8835C398.734 74.8835 399.391 74.1108 400.232 73.5653C401.072 73.0142 402.044 72.7386 403.146 72.7386C403.999 72.7386 404.675 72.8807 405.175 73.1648C405.68 73.4432 406.067 73.7614 406.334 74.1193C406.607 74.4716 406.817 74.7614 406.964 74.9886H407.169V72.9091H409.112V86.375C409.112 87.5 408.857 88.4148 408.345 89.1193C407.839 89.8295 407.158 90.3494 406.3 90.679C405.447 91.0142 404.499 91.1818 403.453 91.1818ZM403.385 83.9886C404.192 83.9886 404.874 83.804 405.43 83.4347C405.987 83.0653 406.411 82.5341 406.7 81.8409C406.99 81.1477 407.135 80.3182 407.135 79.3523C407.135 78.4091 406.993 77.5767 406.709 76.8551C406.425 76.1335 406.004 75.5682 405.447 75.1591C404.891 74.75 404.203 74.5455 403.385 74.5455C402.533 74.5455 401.822 74.7614 401.254 75.1932C400.692 75.625 400.268 76.2045 399.984 76.9318C399.706 77.6591 399.567 78.4659 399.567 79.3523C399.567 80.2614 399.709 81.0653 399.993 81.7642C400.283 82.4574 400.709 83.0028 401.271 83.4006C401.839 83.7926 402.544 83.9886 403.385 83.9886ZM227.981 97.5455H230.504L236.435 112.034H236.64L242.572 97.5455H245.094V115H243.117V101.739H242.947L237.492 115H235.583L230.129 101.739H229.958V115H227.981V97.5455ZM254.548 115.273C253.287 115.273 252.199 114.994 251.284 114.438C250.375 113.875 249.673 113.091 249.179 112.085C248.69 111.074 248.446 109.898 248.446 108.557C248.446 107.216 248.69 106.034 249.179 105.011C249.673 103.983 250.361 103.182 251.241 102.608C252.128 102.028 253.162 101.739 254.344 101.739C255.026 101.739 255.699 101.852 256.364 102.08C257.028 102.307 257.634 102.676 258.179 103.188C258.724 103.693 259.159 104.364 259.483 105.199C259.807 106.034 259.969 107.062 259.969 108.284V109.136H249.878V107.398H257.923C257.923 106.659 257.776 106 257.48 105.42C257.19 104.841 256.776 104.384 256.236 104.048C255.702 103.713 255.071 103.545 254.344 103.545C253.543 103.545 252.849 103.744 252.264 104.142C251.685 104.534 251.239 105.045 250.926 105.676C250.614 106.307 250.457 106.983 250.457 107.705V108.864C250.457 109.852 250.628 110.69 250.969 111.378C251.315 112.06 251.795 112.58 252.409 112.938C253.023 113.29 253.736 113.466 254.548 113.466C255.077 113.466 255.554 113.392 255.98 113.244C256.412 113.091 256.784 112.864 257.097 112.562C257.409 112.256 257.651 111.875 257.821 111.42L259.764 111.966C259.56 112.625 259.216 113.205 258.733 113.705C258.25 114.199 257.653 114.585 256.943 114.864C256.233 115.136 255.435 115.273 254.548 115.273ZM268.722 101.909V103.614H261.938V101.909H268.722ZM263.915 98.7727H265.926V111.25C265.926 111.818 266.009 112.244 266.173 112.528C266.344 112.807 266.56 112.994 266.821 113.091C267.088 113.182 267.369 113.227 267.665 113.227C267.886 113.227 268.068 113.216 268.21 113.193C268.352 113.165 268.466 113.142 268.551 113.125L268.96 114.932C268.824 114.983 268.634 115.034 268.389 115.085C268.145 115.142 267.835 115.17 267.46 115.17C266.892 115.17 266.335 115.048 265.79 114.804C265.25 114.56 264.801 114.188 264.443 113.688C264.091 113.188 263.915 112.557 263.915 111.795V98.7727ZM274.04 107.125V115H272.028V97.5455H274.04V103.955H274.21C274.517 103.278 274.977 102.741 275.591 102.344C276.21 101.94 277.034 101.739 278.062 101.739C278.955 101.739 279.736 101.918 280.406 102.276C281.077 102.628 281.597 103.17 281.966 103.903C282.341 104.631 282.528 105.557 282.528 106.682V115H280.517V106.818C280.517 105.778 280.247 104.974 279.707 104.406C279.173 103.832 278.432 103.545 277.483 103.545C276.824 103.545 276.233 103.685 275.71 103.963C275.193 104.241 274.784 104.648 274.483 105.182C274.188 105.716 274.04 106.364 274.04 107.125ZM291.526 115.273C290.344 115.273 289.308 114.991 288.415 114.429C287.529 113.866 286.836 113.08 286.336 112.068C285.842 111.057 285.594 109.875 285.594 108.523C285.594 107.159 285.842 105.969 286.336 104.952C286.836 103.935 287.529 103.145 288.415 102.582C289.308 102.02 290.344 101.739 291.526 101.739C292.708 101.739 293.742 102.02 294.629 102.582C295.521 103.145 296.214 103.935 296.708 104.952C297.208 105.969 297.458 107.159 297.458 108.523C297.458 109.875 297.208 111.057 296.708 112.068C296.214 113.08 295.521 113.866 294.629 114.429C293.742 114.991 292.708 115.273 291.526 115.273ZM291.526 113.466C292.424 113.466 293.163 113.236 293.742 112.776C294.322 112.315 294.751 111.71 295.029 110.96C295.308 110.21 295.447 109.398 295.447 108.523C295.447 107.648 295.308 106.832 295.029 106.077C294.751 105.321 294.322 104.71 293.742 104.244C293.163 103.778 292.424 103.545 291.526 103.545C290.629 103.545 289.89 103.778 289.31 104.244C288.731 104.71 288.302 105.321 288.023 106.077C287.745 106.832 287.606 107.648 287.606 108.523C287.606 109.398 287.745 110.21 288.023 110.96C288.302 111.71 288.731 112.315 289.31 112.776C289.89 113.236 290.629 113.466 291.526 113.466ZM305.472 115.273C304.381 115.273 303.418 114.997 302.582 114.446C301.747 113.889 301.094 113.105 300.622 112.094C300.151 111.077 299.915 109.875 299.915 108.489C299.915 107.114 300.151 105.92 300.622 104.909C301.094 103.898 301.75 103.116 302.591 102.565C303.432 102.014 304.403 101.739 305.506 101.739C306.358 101.739 307.031 101.881 307.526 102.165C308.026 102.443 308.406 102.761 308.668 103.119C308.935 103.472 309.142 103.761 309.29 103.989H309.46V97.5455H311.472V115H309.528V112.989H309.29C309.142 113.227 308.932 113.528 308.659 113.892C308.386 114.25 307.997 114.571 307.491 114.855C306.986 115.134 306.313 115.273 305.472 115.273ZM305.744 113.466C306.551 113.466 307.233 113.256 307.79 112.835C308.347 112.409 308.77 111.821 309.06 111.071C309.349 110.315 309.494 109.443 309.494 108.455C309.494 107.477 309.352 106.622 309.068 105.889C308.784 105.151 308.364 104.577 307.807 104.168C307.25 103.753 306.563 103.545 305.744 103.545C304.892 103.545 304.182 103.764 303.614 104.202C303.051 104.634 302.628 105.222 302.344 105.966C302.065 106.705 301.926 107.534 301.926 108.455C301.926 109.386 302.068 110.233 302.352 110.994C302.642 111.75 303.068 112.352 303.631 112.801C304.199 113.244 304.903 113.466 305.744 113.466ZM324.707 104.841L322.901 105.352C322.787 105.051 322.619 104.759 322.398 104.474C322.182 104.185 321.886 103.946 321.511 103.759C321.136 103.571 320.656 103.477 320.071 103.477C319.27 103.477 318.602 103.662 318.068 104.031C317.54 104.395 317.276 104.858 317.276 105.42C317.276 105.92 317.457 106.315 317.821 106.605C318.185 106.895 318.753 107.136 319.526 107.33L321.469 107.807C322.639 108.091 323.511 108.526 324.085 109.111C324.659 109.69 324.946 110.437 324.946 111.352C324.946 112.102 324.73 112.773 324.298 113.364C323.872 113.955 323.276 114.42 322.509 114.761C321.741 115.102 320.849 115.273 319.832 115.273C318.497 115.273 317.392 114.983 316.517 114.403C315.642 113.824 315.088 112.977 314.855 111.864L316.764 111.386C316.946 112.091 317.29 112.619 317.795 112.972C318.307 113.324 318.974 113.5 319.798 113.5C320.736 113.5 321.48 113.301 322.031 112.903C322.588 112.5 322.866 112.017 322.866 111.455C322.866 111 322.707 110.619 322.389 110.312C322.071 110 321.582 109.767 320.923 109.614L318.741 109.102C317.543 108.818 316.662 108.378 316.099 107.781C315.543 107.179 315.264 106.426 315.264 105.523C315.264 104.784 315.472 104.131 315.886 103.562C316.307 102.994 316.878 102.548 317.599 102.224C318.327 101.901 319.151 101.739 320.071 101.739C321.366 101.739 322.384 102.023 323.122 102.591C323.866 103.159 324.395 103.909 324.707 104.841Z" fill="white"/>
<rect x="65.5" y="210.5" width="177" height="76" rx="18.5" fill="#641BAD" stroke="white" stroke-width="3"/>
<path d="M87.9663 239.545L93.1481 254.239H93.3526L98.5344 239.545H100.75L94.3413 257H92.1594L85.7504 239.545H87.9663ZM105.83 257.307C105 257.307 104.248 257.151 103.571 256.838C102.895 256.52 102.358 256.062 101.961 255.466C101.563 254.864 101.364 254.136 101.364 253.284C101.364 252.534 101.512 251.926 101.807 251.46C102.103 250.989 102.498 250.619 102.992 250.352C103.486 250.085 104.032 249.886 104.628 249.756C105.23 249.619 105.836 249.511 106.444 249.432C107.239 249.33 107.884 249.253 108.378 249.202C108.878 249.145 109.242 249.051 109.469 248.92C109.702 248.79 109.819 248.562 109.819 248.239V248.17C109.819 247.33 109.588 246.676 109.128 246.21C108.674 245.744 107.983 245.511 107.057 245.511C106.097 245.511 105.344 245.722 104.799 246.142C104.253 246.562 103.87 247.011 103.648 247.489L101.739 246.807C102.08 246.011 102.534 245.392 103.103 244.949C103.676 244.5 104.301 244.187 104.978 244.011C105.659 243.83 106.33 243.739 106.989 243.739C107.409 243.739 107.892 243.79 108.438 243.892C108.989 243.989 109.52 244.19 110.032 244.497C110.549 244.804 110.978 245.267 111.319 245.886C111.659 246.506 111.83 247.335 111.83 248.375V257H109.819V255.227H109.716C109.58 255.511 109.353 255.815 109.034 256.139C108.716 256.463 108.293 256.739 107.765 256.966C107.236 257.193 106.591 257.307 105.83 257.307ZM106.137 255.5C106.932 255.5 107.603 255.344 108.148 255.031C108.699 254.719 109.114 254.315 109.392 253.821C109.676 253.327 109.819 252.807 109.819 252.261V250.42C109.733 250.523 109.546 250.616 109.256 250.702C108.972 250.781 108.642 250.852 108.267 250.915C107.898 250.972 107.537 251.023 107.185 251.068C106.838 251.108 106.557 251.142 106.341 251.17C105.819 251.239 105.33 251.349 104.875 251.503C104.426 251.651 104.063 251.875 103.784 252.176C103.512 252.472 103.375 252.875 103.375 253.386C103.375 254.085 103.634 254.614 104.151 254.972C104.674 255.324 105.336 255.5 106.137 255.5ZM117.512 239.545V257H115.501V239.545H117.512ZM129.446 251.648V243.909H131.458V257H129.446V254.784H129.31C129.003 255.449 128.526 256.014 127.878 256.48C127.23 256.94 126.412 257.17 125.424 257.17C124.605 257.17 123.878 256.991 123.242 256.634C122.605 256.27 122.105 255.724 121.742 254.997C121.378 254.264 121.196 253.341 121.196 252.227V243.909H123.208V252.091C123.208 253.045 123.475 253.807 124.009 254.375C124.549 254.943 125.236 255.227 126.071 255.227C126.571 255.227 127.08 255.099 127.597 254.844C128.12 254.588 128.557 254.196 128.909 253.668C129.267 253.139 129.446 252.466 129.446 251.648ZM140.63 257.273C139.369 257.273 138.281 256.994 137.366 256.438C136.457 255.875 135.755 255.091 135.261 254.085C134.772 253.074 134.528 251.898 134.528 250.557C134.528 249.216 134.772 248.034 135.261 247.011C135.755 245.983 136.443 245.182 137.324 244.608C138.21 244.028 139.244 243.739 140.426 243.739C141.108 243.739 141.781 243.852 142.446 244.08C143.11 244.307 143.716 244.676 144.261 245.188C144.806 245.693 145.241 246.364 145.565 247.199C145.889 248.034 146.051 249.062 146.051 250.284V251.136H135.96V249.398H144.005C144.005 248.659 143.858 248 143.562 247.42C143.272 246.841 142.858 246.384 142.318 246.048C141.784 245.713 141.153 245.545 140.426 245.545C139.625 245.545 138.931 245.744 138.346 246.142C137.767 246.534 137.321 247.045 137.008 247.676C136.696 248.307 136.539 248.983 136.539 249.705V250.864C136.539 251.852 136.71 252.69 137.051 253.378C137.397 254.06 137.877 254.58 138.491 254.938C139.105 255.29 139.818 255.466 140.63 255.466C141.159 255.466 141.636 255.392 142.062 255.244C142.494 255.091 142.866 254.864 143.179 254.562C143.491 254.256 143.733 253.875 143.903 253.42L145.846 253.966C145.642 254.625 145.298 255.205 144.815 255.705C144.332 256.199 143.735 256.585 143.025 256.864C142.315 257.136 141.517 257.273 140.63 257.273ZM156.133 257V239.545H158.145V245.989H158.315C158.463 245.761 158.667 245.472 158.929 245.119C159.196 244.761 159.576 244.443 160.071 244.165C160.571 243.881 161.247 243.739 162.099 243.739C163.201 243.739 164.173 244.014 165.014 244.565C165.855 245.116 166.511 245.898 166.983 246.909C167.454 247.92 167.69 249.114 167.69 250.489C167.69 251.875 167.454 253.077 166.983 254.094C166.511 255.105 165.858 255.889 165.022 256.446C164.187 256.997 163.224 257.273 162.133 257.273C161.292 257.273 160.619 257.134 160.113 256.855C159.608 256.571 159.218 256.25 158.946 255.892C158.673 255.528 158.463 255.227 158.315 254.989H158.076V257H156.133ZM158.11 250.455C158.11 251.443 158.255 252.315 158.545 253.071C158.835 253.821 159.258 254.409 159.815 254.835C160.372 255.256 161.054 255.466 161.86 255.466C162.701 255.466 163.403 255.244 163.966 254.801C164.534 254.352 164.96 253.75 165.244 252.994C165.534 252.233 165.679 251.386 165.679 250.455C165.679 249.534 165.537 248.705 165.252 247.966C164.974 247.222 164.551 246.634 163.983 246.202C163.42 245.764 162.713 245.545 161.86 245.545C161.042 245.545 160.355 245.753 159.798 246.168C159.241 246.577 158.821 247.151 158.537 247.889C158.252 248.622 158.11 249.477 158.11 250.455ZM174.619 257.307C173.789 257.307 173.037 257.151 172.36 256.838C171.684 256.52 171.147 256.062 170.75 255.466C170.352 254.864 170.153 254.136 170.153 253.284C170.153 252.534 170.301 251.926 170.596 251.46C170.892 250.989 171.287 250.619 171.781 250.352C172.275 250.085 172.821 249.886 173.417 249.756C174.02 249.619 174.625 249.511 175.233 249.432C176.028 249.33 176.673 249.253 177.167 249.202C177.667 249.145 178.031 249.051 178.258 248.92C178.491 248.79 178.608 248.562 178.608 248.239V248.17C178.608 247.33 178.377 246.676 177.917 246.21C177.463 245.744 176.772 245.511 175.846 245.511C174.886 245.511 174.133 245.722 173.588 246.142C173.042 246.562 172.659 247.011 172.437 247.489L170.528 246.807C170.869 246.011 171.324 245.392 171.892 244.949C172.466 244.5 173.091 244.187 173.767 244.011C174.449 243.83 175.119 243.739 175.778 243.739C176.199 243.739 176.681 243.79 177.227 243.892C177.778 243.989 178.309 244.19 178.821 244.497C179.338 244.804 179.767 245.267 180.108 245.886C180.449 246.506 180.619 247.335 180.619 248.375V257H178.608V255.227H178.505C178.369 255.511 178.142 255.815 177.824 256.139C177.505 256.463 177.082 256.739 176.554 256.966C176.025 257.193 175.38 257.307 174.619 257.307ZM174.926 255.5C175.721 255.5 176.392 255.344 176.937 255.031C177.488 254.719 177.903 254.315 178.181 253.821C178.466 253.327 178.608 252.807 178.608 252.261V250.42C178.522 250.523 178.335 250.616 178.045 250.702C177.761 250.781 177.431 250.852 177.056 250.915C176.687 250.972 176.326 251.023 175.974 251.068C175.627 251.108 175.346 251.142 175.13 251.17C174.608 251.239 174.119 251.349 173.664 251.503C173.216 251.651 172.852 251.875 172.574 252.176C172.301 252.472 172.164 252.875 172.164 253.386C172.164 254.085 172.423 254.614 172.94 254.972C173.463 255.324 174.125 255.5 174.926 255.5ZM193.563 246.841L191.756 247.352C191.642 247.051 191.475 246.759 191.253 246.474C191.037 246.185 190.742 245.946 190.367 245.759C189.992 245.571 189.512 245.477 188.926 245.477C188.125 245.477 187.458 245.662 186.924 246.031C186.395 246.395 186.131 246.858 186.131 247.42C186.131 247.92 186.313 248.315 186.676 248.605C187.04 248.895 187.608 249.136 188.381 249.33L190.324 249.807C191.495 250.091 192.367 250.526 192.941 251.111C193.515 251.69 193.801 252.437 193.801 253.352C193.801 254.102 193.586 254.773 193.154 255.364C192.728 255.955 192.131 256.42 191.364 256.761C190.597 257.102 189.705 257.273 188.688 257.273C187.353 257.273 186.248 256.983 185.373 256.403C184.498 255.824 183.944 254.977 183.711 253.864L185.62 253.386C185.801 254.091 186.145 254.619 186.651 254.972C187.162 255.324 187.83 255.5 188.654 255.5C189.591 255.5 190.336 255.301 190.887 254.903C191.444 254.5 191.722 254.017 191.722 253.455C191.722 253 191.563 252.619 191.245 252.312C190.926 252 190.438 251.767 189.779 251.614L187.597 251.102C186.398 250.818 185.517 250.378 184.955 249.781C184.398 249.179 184.12 248.426 184.12 247.523C184.12 246.784 184.327 246.131 184.742 245.562C185.162 244.994 185.733 244.548 186.455 244.224C187.182 243.901 188.006 243.739 188.926 243.739C190.222 243.739 191.239 244.023 191.978 244.591C192.722 245.159 193.25 245.909 193.563 246.841ZM202.318 257.273C201.056 257.273 199.968 256.994 199.054 256.438C198.145 255.875 197.443 255.091 196.949 254.085C196.46 253.074 196.216 251.898 196.216 250.557C196.216 249.216 196.46 248.034 196.949 247.011C197.443 245.983 198.13 245.182 199.011 244.608C199.897 244.028 200.931 243.739 202.113 243.739C202.795 243.739 203.468 243.852 204.133 244.08C204.798 244.307 205.403 244.676 205.949 245.188C206.494 245.693 206.929 246.364 207.252 247.199C207.576 248.034 207.738 249.062 207.738 250.284V251.136H197.647V249.398H205.693C205.693 248.659 205.545 248 205.25 247.42C204.96 246.841 204.545 246.384 204.005 246.048C203.471 245.713 202.841 245.545 202.113 245.545C201.312 245.545 200.619 245.744 200.034 246.142C199.454 246.534 199.008 247.045 198.696 247.676C198.383 248.307 198.227 248.983 198.227 249.705V250.864C198.227 251.852 198.397 252.69 198.738 253.378C199.085 254.06 199.565 254.58 200.179 254.938C200.792 255.29 201.505 255.466 202.318 255.466C202.846 255.466 203.324 255.392 203.75 255.244C204.181 255.091 204.554 254.864 204.866 254.562C205.179 254.256 205.42 253.875 205.591 253.42L207.534 253.966C207.329 254.625 206.985 255.205 206.502 255.705C206.02 256.199 205.423 256.585 204.713 256.864C204.002 257.136 203.204 257.273 202.318 257.273ZM215.741 257.273C214.65 257.273 213.687 256.997 212.852 256.446C212.017 255.889 211.363 255.105 210.892 254.094C210.42 253.077 210.184 251.875 210.184 250.489C210.184 249.114 210.42 247.92 210.892 246.909C211.363 245.898 212.02 245.116 212.86 244.565C213.701 244.014 214.673 243.739 215.775 243.739C216.627 243.739 217.301 243.881 217.795 244.165C218.295 244.443 218.676 244.761 218.937 245.119C219.204 245.472 219.412 245.761 219.559 245.989H219.73V239.545H221.741V257H219.798V254.989H219.559C219.412 255.227 219.201 255.528 218.929 255.892C218.656 256.25 218.267 256.571 217.761 256.855C217.255 257.134 216.582 257.273 215.741 257.273ZM216.014 255.466C216.821 255.466 217.502 255.256 218.059 254.835C218.616 254.409 219.039 253.821 219.329 253.071C219.619 252.315 219.764 251.443 219.764 250.455C219.764 249.477 219.622 248.622 219.338 247.889C219.054 247.151 218.633 246.577 218.076 246.168C217.52 245.753 216.832 245.545 216.014 245.545C215.162 245.545 214.451 245.764 213.883 246.202C213.321 246.634 212.897 247.222 212.613 247.966C212.335 248.705 212.196 249.534 212.196 250.455C212.196 251.386 212.338 252.233 212.622 252.994C212.912 253.75 213.338 254.352 213.9 254.801C214.468 255.244 215.173 255.466 216.014 255.466Z" fill="black"/>
<rect x="191.5" y="341.5" width="177" height="76" rx="18.5" fill="#C73737" stroke="white" stroke-width="3"/>
<path d="M219.638 388H217.422L223.831 370.545H226.013L232.422 388H230.206L224.99 373.307H224.854L219.638 388ZM220.456 381.182H229.388V383.057H220.456V381.182ZM240.186 388.273C238.959 388.273 237.902 387.983 237.016 387.403C236.13 386.824 235.448 386.026 234.971 385.009C234.493 383.991 234.255 382.83 234.255 381.523C234.255 380.193 234.499 379.02 234.988 378.003C235.482 376.98 236.169 376.182 237.05 375.608C237.936 375.028 238.971 374.739 240.152 374.739C241.073 374.739 241.902 374.909 242.641 375.25C243.38 375.591 243.985 376.068 244.456 376.682C244.928 377.295 245.221 378.011 245.334 378.83H243.323C243.169 378.233 242.828 377.705 242.3 377.244C241.777 376.778 241.073 376.545 240.186 376.545C239.402 376.545 238.715 376.75 238.124 377.159C237.539 377.562 237.081 378.134 236.752 378.872C236.428 379.605 236.266 380.466 236.266 381.455C236.266 382.466 236.425 383.347 236.743 384.097C237.067 384.847 237.522 385.429 238.107 385.844C238.698 386.259 239.391 386.466 240.186 386.466C240.709 386.466 241.184 386.375 241.61 386.193C242.036 386.011 242.397 385.75 242.692 385.409C242.988 385.068 243.198 384.659 243.323 384.182H245.334C245.221 384.955 244.939 385.651 244.49 386.27C244.047 386.884 243.459 387.372 242.726 387.736C241.999 388.094 241.152 388.273 240.186 388.273ZM253.968 374.909V376.614H247.184V374.909H253.968ZM249.161 371.773H251.172V384.25C251.172 384.818 251.255 385.244 251.419 385.528C251.59 385.807 251.806 385.994 252.067 386.091C252.334 386.182 252.615 386.227 252.911 386.227C253.132 386.227 253.314 386.216 253.456 386.193C253.598 386.165 253.712 386.142 253.797 386.125L254.206 387.932C254.07 387.983 253.88 388.034 253.635 388.085C253.391 388.142 253.081 388.17 252.706 388.17C252.138 388.17 251.581 388.048 251.036 387.804C250.496 387.56 250.047 387.188 249.689 386.688C249.337 386.188 249.161 385.557 249.161 384.795V371.773ZM262.171 388.273C260.989 388.273 259.952 387.991 259.06 387.429C258.174 386.866 257.48 386.08 256.98 385.068C256.486 384.057 256.239 382.875 256.239 381.523C256.239 380.159 256.486 378.969 256.98 377.952C257.48 376.935 258.174 376.145 259.06 375.582C259.952 375.02 260.989 374.739 262.171 374.739C263.353 374.739 264.387 375.02 265.273 375.582C266.165 376.145 266.858 376.935 267.353 377.952C267.853 378.969 268.103 380.159 268.103 381.523C268.103 382.875 267.853 384.057 267.353 385.068C266.858 386.08 266.165 386.866 265.273 387.429C264.387 387.991 263.353 388.273 262.171 388.273ZM262.171 386.466C263.069 386.466 263.807 386.236 264.387 385.776C264.966 385.315 265.395 384.71 265.674 383.96C265.952 383.21 266.091 382.398 266.091 381.523C266.091 380.648 265.952 379.832 265.674 379.077C265.395 378.321 264.966 377.71 264.387 377.244C263.807 376.778 263.069 376.545 262.171 376.545C261.273 376.545 260.534 376.778 259.955 377.244C259.375 377.71 258.946 378.321 258.668 379.077C258.39 379.832 258.25 380.648 258.25 381.523C258.25 382.398 258.39 383.21 258.668 383.96C258.946 384.71 259.375 385.315 259.955 385.776C260.534 386.236 261.273 386.466 262.171 386.466ZM271.173 388V374.909H273.116V376.886H273.252C273.491 376.239 273.923 375.713 274.548 375.31C275.173 374.906 275.877 374.705 276.662 374.705C276.809 374.705 276.994 374.707 277.216 374.713C277.437 374.719 277.605 374.727 277.718 374.739V376.784C277.65 376.767 277.494 376.741 277.25 376.707C277.011 376.668 276.758 376.648 276.491 376.648C275.855 376.648 275.287 376.781 274.787 377.048C274.292 377.31 273.9 377.673 273.61 378.139C273.326 378.599 273.184 379.125 273.184 379.716V388H271.173ZM286.642 379.58V381.455H279.005V379.58H286.642ZM295.499 388.273C294.272 388.273 293.215 387.983 292.328 387.403C291.442 386.824 290.76 386.026 290.283 385.009C289.806 383.991 289.567 382.83 289.567 381.523C289.567 380.193 289.811 379.02 290.3 378.003C290.794 376.98 291.482 376.182 292.363 375.608C293.249 375.028 294.283 374.739 295.465 374.739C296.385 374.739 297.215 374.909 297.953 375.25C298.692 375.591 299.297 376.068 299.769 376.682C300.24 377.295 300.533 378.011 300.647 378.83H298.635C298.482 378.233 298.141 377.705 297.613 377.244C297.09 376.778 296.385 376.545 295.499 376.545C294.715 376.545 294.027 376.75 293.436 377.159C292.851 377.562 292.394 378.134 292.064 378.872C291.74 379.605 291.578 380.466 291.578 381.455C291.578 382.466 291.738 383.347 292.056 384.097C292.38 384.847 292.834 385.429 293.419 385.844C294.01 386.259 294.703 386.466 295.499 386.466C296.022 386.466 296.496 386.375 296.922 386.193C297.348 386.011 297.709 385.75 298.005 385.409C298.3 385.068 298.51 384.659 298.635 384.182H300.647C300.533 384.955 300.252 385.651 299.803 386.27C299.36 386.884 298.772 387.372 298.039 387.736C297.311 388.094 296.465 388.273 295.499 388.273ZM303.587 388V374.909H305.53V376.886H305.667C305.905 376.239 306.337 375.713 306.962 375.31C307.587 374.906 308.292 374.705 309.076 374.705C309.223 374.705 309.408 374.707 309.63 374.713C309.851 374.719 310.019 374.727 310.132 374.739V376.784C310.064 376.767 309.908 376.741 309.664 376.707C309.425 376.668 309.172 376.648 308.905 376.648C308.269 376.648 307.701 376.781 307.201 377.048C306.706 377.31 306.314 377.673 306.025 378.139C305.74 378.599 305.598 379.125 305.598 379.716V388H303.587ZM312.517 388V374.909H314.528V388H312.517ZM313.539 372.727C313.147 372.727 312.809 372.594 312.525 372.327C312.247 372.06 312.108 371.739 312.108 371.364C312.108 370.989 312.247 370.668 312.525 370.401C312.809 370.134 313.147 370 313.539 370C313.931 370 314.267 370.134 314.545 370.401C314.829 370.668 314.971 370.989 314.971 371.364C314.971 371.739 314.829 372.06 314.545 372.327C314.267 372.594 313.931 372.727 313.539 372.727ZM323.905 374.909V376.614H317.121V374.909H323.905ZM319.098 371.773H321.11V384.25C321.11 384.818 321.192 385.244 321.357 385.528C321.527 385.807 321.743 385.994 322.005 386.091C322.272 386.182 322.553 386.227 322.848 386.227C323.07 386.227 323.252 386.216 323.394 386.193C323.536 386.165 323.65 386.142 323.735 386.125L324.144 387.932C324.007 387.983 323.817 388.034 323.573 388.085C323.328 388.142 323.019 388.17 322.644 388.17C322.076 388.17 321.519 388.048 320.973 387.804C320.434 387.56 319.985 387.188 319.627 386.688C319.275 386.188 319.098 385.557 319.098 384.795V371.773ZM326.931 388V374.909H328.942V388H326.931ZM327.953 372.727C327.561 372.727 327.223 372.594 326.939 372.327C326.661 372.06 326.522 371.739 326.522 371.364C326.522 370.989 326.661 370.668 326.939 370.401C327.223 370.134 327.561 370 327.953 370C328.346 370 328.681 370.134 328.959 370.401C329.243 370.668 329.385 370.989 329.385 371.364C329.385 371.739 329.243 372.06 328.959 372.327C328.681 372.594 328.346 372.727 327.953 372.727ZM337.944 388.273C336.717 388.273 335.66 387.983 334.774 387.403C333.887 386.824 333.206 386.026 332.728 385.009C332.251 383.991 332.012 382.83 332.012 381.523C332.012 380.193 332.257 379.02 332.745 378.003C333.24 376.98 333.927 376.182 334.808 375.608C335.694 375.028 336.728 374.739 337.91 374.739C338.831 374.739 339.66 374.909 340.399 375.25C341.137 375.591 341.743 376.068 342.214 376.682C342.686 377.295 342.978 378.011 343.092 378.83H341.081C340.927 378.233 340.586 377.705 340.058 377.244C339.535 376.778 338.831 376.545 337.944 376.545C337.16 376.545 336.473 376.75 335.882 377.159C335.297 377.562 334.839 378.134 334.51 378.872C334.186 379.605 334.024 380.466 334.024 381.455C334.024 382.466 334.183 383.347 334.501 384.097C334.825 384.847 335.279 385.429 335.865 385.844C336.456 386.259 337.149 386.466 337.944 386.466C338.467 386.466 338.941 386.375 339.368 386.193C339.794 386.011 340.154 385.75 340.45 385.409C340.745 385.068 340.956 384.659 341.081 384.182H343.092C342.978 384.955 342.697 385.651 342.248 386.27C341.805 386.884 341.217 387.372 340.484 387.736C339.757 388.094 338.91 388.273 337.944 388.273Z" fill="black"/>
<rect x="325.5" y="210.5" width="177" height="76" rx="18.5" fill="#00950F" stroke="white" stroke-width="3"/>
<path d="M344.532 257V239.545H350.429C351.799 239.545 352.918 239.793 353.787 240.287C354.662 240.776 355.31 241.438 355.73 242.273C356.151 243.108 356.361 244.04 356.361 245.068C356.361 246.097 356.151 247.031 355.73 247.872C355.316 248.713 354.674 249.384 353.804 249.884C352.935 250.378 351.821 250.625 350.463 250.625H346.236V248.75H350.395C351.333 248.75 352.086 248.588 352.654 248.264C353.222 247.94 353.634 247.503 353.89 246.952C354.151 246.395 354.282 245.767 354.282 245.068C354.282 244.369 354.151 243.744 353.89 243.193C353.634 242.642 353.219 242.21 352.645 241.898C352.071 241.58 351.31 241.42 350.361 241.42H346.645V257H344.532ZM364.671 257.273C363.489 257.273 362.452 256.991 361.56 256.429C360.674 255.866 359.98 255.08 359.48 254.068C358.986 253.057 358.739 251.875 358.739 250.523C358.739 249.159 358.986 247.969 359.48 246.952C359.98 245.935 360.674 245.145 361.56 244.582C362.452 244.02 363.489 243.739 364.671 243.739C365.853 243.739 366.887 244.02 367.773 244.582C368.665 245.145 369.358 245.935 369.853 246.952C370.353 247.969 370.603 249.159 370.603 250.523C370.603 251.875 370.353 253.057 369.853 254.068C369.358 255.08 368.665 255.866 367.773 256.429C366.887 256.991 365.853 257.273 364.671 257.273ZM364.671 255.466C365.569 255.466 366.307 255.236 366.887 254.776C367.466 254.315 367.895 253.71 368.174 252.96C368.452 252.21 368.591 251.398 368.591 250.523C368.591 249.648 368.452 248.832 368.174 248.077C367.895 247.321 367.466 246.71 366.887 246.244C366.307 245.778 365.569 245.545 364.671 245.545C363.773 245.545 363.034 245.778 362.455 246.244C361.875 246.71 361.446 247.321 361.168 248.077C360.89 248.832 360.75 249.648 360.75 250.523C360.75 251.398 360.89 252.21 361.168 252.96C361.446 253.71 361.875 254.315 362.455 254.776C363.034 255.236 363.773 255.466 364.671 255.466ZM375.684 239.545V257H373.673V239.545H375.684ZM379.368 257V243.909H381.38V257H379.368ZM380.391 241.727C379.999 241.727 379.661 241.594 379.377 241.327C379.098 241.06 378.959 240.739 378.959 240.364C378.959 239.989 379.098 239.668 379.377 239.401C379.661 239.134 379.999 239 380.391 239C380.783 239 381.118 239.134 381.397 239.401C381.681 239.668 381.823 239.989 381.823 240.364C381.823 240.739 381.681 241.06 381.397 241.327C381.118 241.594 380.783 241.727 380.391 241.727ZM390.382 257.273C389.154 257.273 388.098 256.983 387.211 256.403C386.325 255.824 385.643 255.026 385.166 254.009C384.689 252.991 384.45 251.83 384.45 250.523C384.45 249.193 384.694 248.02 385.183 247.003C385.677 245.98 386.365 245.182 387.245 244.608C388.132 244.028 389.166 243.739 390.348 243.739C391.268 243.739 392.098 243.909 392.836 244.25C393.575 244.591 394.18 245.068 394.652 245.682C395.123 246.295 395.416 247.011 395.529 247.83H393.518C393.365 247.233 393.024 246.705 392.495 246.244C391.973 245.778 391.268 245.545 390.382 245.545C389.598 245.545 388.91 245.75 388.319 246.159C387.734 246.562 387.277 247.134 386.947 247.872C386.623 248.605 386.461 249.466 386.461 250.455C386.461 251.466 386.62 252.347 386.939 253.097C387.262 253.847 387.717 254.429 388.302 254.844C388.893 255.259 389.586 255.466 390.382 255.466C390.904 255.466 391.379 255.375 391.805 255.193C392.231 255.011 392.592 254.75 392.887 254.409C393.183 254.068 393.393 253.659 393.518 253.182H395.529C395.416 253.955 395.135 254.651 394.686 255.27C394.243 255.884 393.654 256.372 392.922 256.736C392.194 257.094 391.348 257.273 390.382 257.273ZM399.765 261.909C399.424 261.909 399.12 261.881 398.853 261.824C398.586 261.773 398.402 261.722 398.299 261.67L398.811 259.898C399.299 260.023 399.731 260.068 400.106 260.034C400.481 260 400.814 259.832 401.103 259.531C401.399 259.236 401.669 258.756 401.913 258.091L402.288 257.068L397.447 243.909H399.629L403.243 254.341H403.379L406.993 243.909H409.174L403.618 258.909C403.368 259.585 403.058 260.145 402.689 260.588C402.319 261.037 401.89 261.369 401.402 261.585C400.919 261.801 400.373 261.909 399.765 261.909ZM418.852 257V239.545H420.863V245.989H421.034C421.181 245.761 421.386 245.472 421.647 245.119C421.914 244.761 422.295 244.443 422.789 244.165C423.289 243.881 423.966 243.739 424.818 243.739C425.92 243.739 426.892 244.014 427.733 244.565C428.574 245.116 429.23 245.898 429.701 246.909C430.173 247.92 430.409 249.114 430.409 250.489C430.409 251.875 430.173 253.077 429.701 254.094C429.23 255.105 428.576 255.889 427.741 256.446C426.906 256.997 425.943 257.273 424.852 257.273C424.011 257.273 423.338 257.134 422.832 256.855C422.326 256.571 421.937 256.25 421.664 255.892C421.392 255.528 421.181 255.227 421.034 254.989H420.795V257H418.852ZM420.829 250.455C420.829 251.443 420.974 252.315 421.264 253.071C421.554 253.821 421.977 254.409 422.534 254.835C423.091 255.256 423.772 255.466 424.579 255.466C425.42 255.466 426.122 255.244 426.684 254.801C427.252 254.352 427.679 253.75 427.963 252.994C428.252 252.233 428.397 251.386 428.397 250.455C428.397 249.534 428.255 248.705 427.971 247.966C427.693 247.222 427.27 246.634 426.701 246.202C426.139 245.764 425.431 245.545 424.579 245.545C423.761 245.545 423.074 245.753 422.517 246.168C421.96 246.577 421.539 247.151 421.255 247.889C420.971 248.622 420.829 249.477 420.829 250.455ZM437.338 257.307C436.508 257.307 435.755 257.151 435.079 256.838C434.403 256.52 433.866 256.062 433.468 255.466C433.071 254.864 432.872 254.136 432.872 253.284C432.872 252.534 433.02 251.926 433.315 251.46C433.61 250.989 434.005 250.619 434.5 250.352C434.994 250.085 435.539 249.886 436.136 249.756C436.738 249.619 437.343 249.511 437.951 249.432C438.747 249.33 439.392 249.253 439.886 249.202C440.386 249.145 440.75 249.051 440.977 248.92C441.21 248.79 441.326 248.562 441.326 248.239V248.17C441.326 247.33 441.096 246.676 440.636 246.21C440.181 245.744 439.491 245.511 438.565 245.511C437.605 245.511 436.852 245.722 436.306 246.142C435.761 246.562 435.377 247.011 435.156 247.489L433.247 246.807C433.588 246.011 434.042 245.392 434.61 244.949C435.184 244.5 435.809 244.187 436.485 244.011C437.167 243.83 437.838 243.739 438.497 243.739C438.917 243.739 439.4 243.79 439.946 243.892C440.497 243.989 441.028 244.19 441.539 244.497C442.056 244.804 442.485 245.267 442.826 245.886C443.167 246.506 443.338 247.335 443.338 248.375V257H441.326V255.227H441.224C441.088 255.511 440.86 255.815 440.542 256.139C440.224 256.463 439.801 256.739 439.272 256.966C438.744 257.193 438.099 257.307 437.338 257.307ZM437.645 255.5C438.44 255.5 439.11 255.344 439.656 255.031C440.207 254.719 440.622 254.315 440.9 253.821C441.184 253.327 441.326 252.807 441.326 252.261V250.42C441.241 250.523 441.054 250.616 440.764 250.702C440.48 250.781 440.15 250.852 439.775 250.915C439.406 250.972 439.045 251.023 438.693 251.068C438.346 251.108 438.065 251.142 437.849 251.17C437.326 251.239 436.838 251.349 436.383 251.503C435.934 251.651 435.571 251.875 435.292 252.176C435.02 252.472 434.883 252.875 434.883 253.386C434.883 254.085 435.142 254.614 435.659 254.972C436.181 255.324 436.843 255.5 437.645 255.5ZM456.282 246.841L454.475 247.352C454.361 247.051 454.194 246.759 453.972 246.474C453.756 246.185 453.461 245.946 453.086 245.759C452.711 245.571 452.23 245.477 451.645 245.477C450.844 245.477 450.176 245.662 449.642 246.031C449.114 246.395 448.85 246.858 448.85 247.42C448.85 247.92 449.032 248.315 449.395 248.605C449.759 248.895 450.327 249.136 451.1 249.33L453.043 249.807C454.213 250.091 455.086 250.526 455.659 251.111C456.233 251.69 456.52 252.437 456.52 253.352C456.52 254.102 456.304 254.773 455.873 255.364C455.446 255.955 454.85 256.42 454.083 256.761C453.316 257.102 452.424 257.273 451.407 257.273C450.071 257.273 448.966 256.983 448.091 256.403C447.216 255.824 446.662 254.977 446.429 253.864L448.338 253.386C448.52 254.091 448.864 254.619 449.37 254.972C449.881 255.324 450.549 255.5 451.373 255.5C452.31 255.5 453.054 255.301 453.605 254.903C454.162 254.5 454.441 254.017 454.441 253.455C454.441 253 454.282 252.619 453.963 252.312C453.645 252 453.157 251.767 452.498 251.614L450.316 251.102C449.117 250.818 448.236 250.378 447.674 249.781C447.117 249.179 446.838 248.426 446.838 247.523C446.838 246.784 447.046 246.131 447.461 245.562C447.881 244.994 448.452 244.548 449.174 244.224C449.901 243.901 450.725 243.739 451.645 243.739C452.941 243.739 453.958 244.023 454.696 244.591C455.441 245.159 455.969 245.909 456.282 246.841ZM465.037 257.273C463.775 257.273 462.687 256.994 461.772 256.438C460.863 255.875 460.162 255.091 459.667 254.085C459.179 253.074 458.934 251.898 458.934 250.557C458.934 249.216 459.179 248.034 459.667 247.011C460.162 245.983 460.849 245.182 461.73 244.608C462.616 244.028 463.65 243.739 464.832 243.739C465.514 243.739 466.187 243.852 466.852 244.08C467.517 244.307 468.122 244.676 468.667 245.188C469.213 245.693 469.647 246.364 469.971 247.199C470.295 248.034 470.457 249.062 470.457 250.284V251.136H460.366V249.398H468.412C468.412 248.659 468.264 248 467.968 247.42C467.679 246.841 467.264 246.384 466.724 246.048C466.19 245.713 465.559 245.545 464.832 245.545C464.031 245.545 463.338 245.744 462.752 246.142C462.173 246.534 461.727 247.045 461.414 247.676C461.102 248.307 460.946 248.983 460.946 249.705V250.864C460.946 251.852 461.116 252.69 461.457 253.378C461.804 254.06 462.284 254.58 462.897 254.938C463.511 255.29 464.224 255.466 465.037 255.466C465.565 255.466 466.042 255.392 466.468 255.244C466.9 255.091 467.272 254.864 467.585 254.562C467.897 254.256 468.139 253.875 468.309 253.42L470.252 253.966C470.048 254.625 469.704 255.205 469.221 255.705C468.738 256.199 468.142 256.585 467.431 256.864C466.721 257.136 465.923 257.273 465.037 257.273ZM478.46 257.273C477.369 257.273 476.406 256.997 475.571 256.446C474.735 255.889 474.082 255.105 473.61 254.094C473.139 253.077 472.903 251.875 472.903 250.489C472.903 249.114 473.139 247.92 473.61 246.909C474.082 245.898 474.738 245.116 475.579 244.565C476.42 244.014 477.392 243.739 478.494 243.739C479.346 243.739 480.02 243.881 480.514 244.165C481.014 244.443 481.395 244.761 481.656 245.119C481.923 245.472 482.13 245.761 482.278 245.989H482.449V239.545H484.46V257H482.517V254.989H482.278C482.13 255.227 481.92 255.528 481.647 255.892C481.375 256.25 480.985 256.571 480.48 256.855C479.974 257.134 479.301 257.273 478.46 257.273ZM478.733 255.466C479.539 255.466 480.221 255.256 480.778 254.835C481.335 254.409 481.758 253.821 482.048 253.071C482.338 252.315 482.483 251.443 482.483 250.455C482.483 249.477 482.341 248.622 482.056 247.889C481.772 247.151 481.352 246.577 480.795 246.168C480.238 245.753 479.551 245.545 478.733 245.545C477.88 245.545 477.17 245.764 476.602 246.202C476.039 246.634 475.616 247.222 475.332 247.966C475.054 248.705 474.914 249.534 474.914 250.455C474.914 251.386 475.056 252.233 475.341 252.994C475.63 253.75 476.056 254.352 476.619 254.801C477.187 255.244 477.892 255.466 478.733 255.466Z" fill="black"/>
<path d="M133 209.999C163.049 201.425 252.705 168.281 288.767 136C323.56 166.09 399.957 210.251 425 209.999" stroke="white" stroke-width="2"/>
<path d="M145.5 286.5C195.5 286.5 224.5 341.5 279 341.5" stroke="white" stroke-width="2"/>
<path d="M419.5 286.5C373 286.5 338.5 341.5 278.5 341.5" stroke="white" stroke-width="2"/>
</svg>
